<?xml version="1.0" encoding="UTF-8"?>
<svg width="752pt" height="752pt" version="1.1" viewBox="0 0 752 752" xmlns="http://www.w3.org/2000/svg">
 <path d="m485.58 289.31-88.871 48.297c6.3398-15-3.4336-20.129-3.4336-20.129 1.8047-11.59-4.3477-17.023-4.3477-17.023l-4.5898 17.051c-2.0938-1.0039-5.0586-1.6289-8.3398-1.6289s-6.2461 0.625-8.3398 1.6289l-4.5898-17.051s-6.1523 5.4375-4.3438 17.023c0 0-9.7695 5.1289-3.4375 20.129l-88.867-48.297s-57.441-29.949-92.73 38.641c0 0 50.227-9.6641 61.824 35.742 0 0 56.031 3.8594 63.754 42.504 0 0 40.566-7.7344 56.031 23.188 0 0 0 15.453 12.559 31.871 0 0-2.3672 17.77 8.1484 0.15234 10.523 17.617 8.1484-0.15234 8.1484-0.15234 12.555-16.422 12.555-31.871 12.555-31.871 15.461-30.914 56.031-23.188 56.031-23.188 7.7227-38.645 63.754-42.504 63.754-42.504 11.594-45.406 61.824-35.742 61.824-35.742-35.293-68.586-92.738-38.641-92.738-38.641z"/>
</svg>
