<?xml version="1.0" encoding="UTF-8"?>
<svg width="752pt" height="752pt" version="1.1" viewBox="0 0 752 752" xmlns="http://www.w3.org/2000/svg">
 <g>
  <path d="m446.43 561.58c4.0117-7.0078-23.508-38.676-62.816-49.668-10.531-2.9453-28.863-7.8203-49.938-1.2305-34.484 10.785-56.047 45.922-51.176 52.52 1.8789 2.5469 6.2617-1.1016 16.773 0.78906 13.781 2.4844 16.746 8.3164 28.188 14.156 10.617 5.418 12.734 9.3242 31.762 11.02 15.992 1.4258 22.965 0.50391 29.383-5.6602 6.2812-6.0273 10.641-7.5234 18.379-13.082 17.309-12.414 36.113-3.0234 39.445-8.8438z"/>
  <path d="m603.32 169.38s-70.535-49.016-112.09 3.8086c0 0-28.945 37.691-1.5156 50.035 0 0 15.715 14.293 60.344-4.7695 0-0.007812 14.348-35.703 53.258-49.074z"/>
  <path d="m565.02 325.43s9.2617-68.32-72.805-63.027c0 0-34.035 6.5156-51.84 50.516l-10.082 19.262s27.473 10.219 52.062 11.121c0 0 30.109 0.33984 53.395-16.348 0 0 15-14.414 29.27-1.5234z"/>
  <path d="m558.63 383.75s-64.555-58.699-113.17-32.508c0 0-29.973 15.359-51.594 72.816 0 0 26.387-16.93 53.363-6.5352 0.003906 0 43.516 34.441 111.4-33.773z"/>
  <path d="m346.08 180.18s57.738-8.6719 61.801 77.777c0 0 2.8008 9.7148-12.094 49.73 0 0-38.867 1.8945-56.672-41.008 0 0-10.016-21.816 4.2305-54.012-0.003906 0 15.691-24.07 2.7344-32.488z"/>
  <path d="m287.99 311.5s-1.5234-40.852 49.211-18.215c0 0 40.289 17.512 32.477 66.391 0 0-2.6016 15.148-9.4805 27.43 0 0-60.012-16.027-58.207-57.891 0 0 1.8906-20.855-6.0508-19.285z"/>
  <path d="m255.86 376.92s55.531-36.5 81.703 41.031c0 0 14.191 48.668-50.145 55.684 0 0-45.445-4.957-23.051-58.105 0 0.003906 19.5-31.695-8.5078-38.609z"/>
  <path d="m185.41 435.99s78.543-4.1992 80.195 59.586c0 0 0.80859 54.062-55.797 49.961 0 0-40.879-4.0742-24.199-60.082 0-0.003906 22.551-46.422-0.19922-49.465z"/>
  <path d="m486.62 239.52c-0.003906-1.0664-0.20703-15.887-8.582-20.078-10.812-5.4141-28.43 10.316-34.922 16.109-30.215 26.969-40.848 60.566-44.895 73.137-5.2227 16.215-24.332 75.555-40.18 110.2-49.336 107.9-155.47 169.77-177.47 180.15-2.3867 1.1289-14.258 6.5977-13.695 7.7305 0.87109 1.7461 30.93-7.9336 39.246-10.785 52.285-17.922 85.789-54.012 108.52-79.035 15.559-17.129 54.855-61.176 82.285-129.01 21.043-52.031 15.336-69.195 40.883-93.027 20.836-19.438 48.867-30.621 48.812-55.395z"/>
  <path d="m507.29 477.6s-59.41-63.898-110.05-41.871c0 0-31.152 12.797-57.508 68.242 0 0 27.715-14.66 53.723-2.0469-0.003906 0.003906 40.473 37.973 113.83-24.324z"/>
 </g>
</svg>
