<?xml version="1.0" encoding="UTF-8"?>
<svg width="752pt" height="752pt" version="1.1" viewBox="0 0 752 752" xmlns="http://www.w3.org/2000/svg">
 <path d="m518.07 243.4c-25.527-1.043-52.945 5.8242-80.508 62.371-22.73 47.453-154.39 134.97-275.91 95.332l-4.2656-1.4219-1.6094 4.168c-8.8555 22.781-7.1016 33.719-6.6758 35.047l0.80469 3.7422 16.34-0.003907-21.312 15.109 4.168 34.809 6.8672-6.5352c32.254-27.246 73.676-41.18 115.84-38.977-6.2031 7.9102-23.68 14.207-35.188 16.906l-36.086 8.0508 36.988 1.2773c34.945 0.63281 69.863-2.3828 104.19-8.9961 9.2383 6.9141 19.926 11.645 31.254 13.828 2.2266 8.2891 16.766 18.375 26.094 24.105-11.32 7.5781-10.324 12.027-9.9453 13.688 0.80469 3.6484 4.168 5.6836 9.9922 6.0625 5.8242 0.37891 14.586 0.47266 23.68 0.47266 17.711 0 36.75-0.47266 37.887-0.47266l18.234-0.42578-5.3047-2.793 53.941-0.003907-39.496-9.4727c-23.156-5.4922-46.078-25.289-56.828-35.566 31.305-6.9609 79.324-28.414 99.453-93.676 23.488-76.148 65.59-88.605 66.016-88.746l12.078-3.2188-48.07-23.918c-10.555-12.734-26.09-20.297-42.625-20.742zm-55.406 266.01h-6.9141c-22.543-12.219-45.746-26.285-48.117-30.262-0.21875-0.62891-0.36328-1.2812-0.42578-1.9414 3.0781 0 7.4844-0.42578 12.836-1.1836h-0.003906c12.559 13.086 26.91 24.328 42.625 33.387zm59.055-131.89c-24.816 81.078-93.629 89.508-113.57 90.266 0.67188-3.2188 1.5742-6.3828 2.6992-9.4727l-8.8555-3.3633c-0.71094 1.8008-6.6289 18.043-3.2695 27.324 2.3672 6.4883 24.199 19.75 43.711 30.547-13.641 0-31.637 0.28516-41.582-0.23828l0.003906 0.003906c2.9844-2.3359 6.1523-4.4258 9.4727-6.25l7.625-4.1211-7.5781-4.168c-14.777-8.0977-28.414-18.941-28.699-22.117l4.7344-7.5781-8.8086 0.37891 0.003906 0.003907c-8.1055-0.42578-15.957-2.957-22.781-7.3438 23.473-5.0977 46.23-13.047 67.77-23.676l-4.3086-8.4297c-50.484 25.953-115.98 32.629-152.54 34.238 8.8555-4.7344 16.766-11.32 18.137-19.984l0.75781-4.7344-4.9727-0.47266v-0.003906c-44.023-4.2656-88.027 8.3281-123.13 35.234l-1.5156-11.367 41.012-29.027h-37.887c0.50781-7.4258 2.1016-14.734 4.7383-21.691 53.75 16.148 116.26 10.371 176.69-16.527 49.867-22.07 92.773-56.355 106.79-85.246 23.68-48.777 45.605-58.012 71.414-56.828h0.003907c14.086 0.28516 27.312 6.832 36.086 17.852l0.71094 0.99609 29.789 14.727c-15.25 8.3359-44.422 31.398-62.656 91.07z"/>
</svg>
