<?xml version="1.0" encoding="UTF-8"?>
<svg width="752pt" height="752pt" version="1.1" viewBox="0 0 752 752" xmlns="http://www.w3.org/2000/svg">
 <path d="m508.96 418.29c0.35156 19.93-14.043 59.281-14.043 59.281 8.3242 5.457 10.473 24.391-12.742 17.668-23.234-6.7148-24.438-18.5-16.965-23.199 7.4648-4.7461 19.398-53.953 19.398-53.953-32.113-7.7383-45.086-13.02-47.941-32.129-2.8516-19.16 17.723-32.309 29.719-39.52 12.004-7.2188 15.586-23.375 34.113-22.984 10.461 0.22656 14.895 6.6094 23.012 23.438 8.0938 16.852 30.559 10.383 29.969 41.504-0.59375 31.117-44.52 29.895-44.52 29.895zm-130.85-88.523c-5.1797 0 2.6016 67.566 6.5117 101.33 3.8828 33.793 6.4844 19.492 22.078 40.281 15.586 20.781-40.281 40.273-49.355 32.453-9.0938-7.7852 9.082-16.875 5.1914-38.965-3.8828-22.055-15.574-128.6-15.574-128.6l-29.879 3.8828c-50.66 6.4961-48.07-20.781-36.387-42.875 11.688-22.078 44.355-51.008 83.152-55.855 41.559-5.2031 115.6 32.473 98.73 61.059-16.918 28.598-79.258 27.289-84.469 27.289zm-64.383 61.652c1 19.328-10.656 27.066-40.586 41.074 0 0 21.473 45.828 29.719 48.984 8.2422 3.1484 9.4414 14.918-11.992 26.117-21.457 11.219-23.098-7.7852-16.004-14.805 0 0-21.945-35.672-25.57-55.301 0 0-42.777 9.9297-49.559-20.449-6.7734-30.379 16.555-28.504 21.156-46.613 4.5977-18.137 7.6641-25.238 17.879-27.527 18.086-4.082 24.793 11.035 37.984 15.707 13.188 4.6992 35.973 13.484 36.973 32.812z"/>
</svg>
