<?xml version="1.0" encoding="UTF-8"?>
<svg width="752pt" height="752pt" version="1.1" viewBox="0 0 752 752" xmlns="http://www.w3.org/2000/svg">
 <path d="m588.64 522.81c-4.2617-49.727-38.836-53.043-54.465-56.355-14.207-3.3164-34.57-9.4727-62.512-33.152-30.309-26.047-58.723-54.934-58.723-54.934s150.12-108.92 55.883-164.33c-91.875-53.988-212.64-37.887-259.52 4.7344-53.039 48.305-46.41 156.28-45.938 191.32 0 28.414 3.7891 65.828 36.938 83.824 41.676 22.73 114.61-25.574 146.81-62.039 71.039 94.715 125.02 120.76 144.91 130.23 35.523 17.051 101.82 17.051 96.617-39.305zm-262.84-99.453-39.781 18.469c-1.8945 0.94531-3.7891-0.47266-3.7891-2.3672v-18.941c0-1.4219 1.4219-2.8398 2.8398-2.8398l39.781 0.47266c2.8438-0.003906 3.3164 4.2617 0.94922 5.207zm17.523-48.305-32.676-5.2109c-1.8945-0.47266-2.8398-2.3672-1.8945-4.2617l11.84-17.523c0.94531-1.4219 2.8398-1.4219 4.2617-0.47266l20.836 22.258c1.8945 2.8438 0 5.6836-2.3672 5.2109zm27.941-23.68c-0.47266 2.8398-4.2617 3.3164-5.2109 0.47266l-11.84-28.887c-0.47266-1.4219 0-2.8398 0.94531-3.3164l17.051-10.418c1.8945-0.94531 4.2617 0.47266 4.2617 2.8398zm-80.035-39.309c-39.781 38.359-61.094 100.87-69.145 130.71-0.94531 2.8398-5.2109 2.3672-5.2109-0.94531 0.47266-28.414 8.0508-84.77 57.777-142.07 52.094-60.145 144.44-58.25 188.48-53.043 3.3164 0.47266 3.3164 5.2109 0 5.2109-42.145 4.2617-127.39 17.523-171.91 60.145zm119.82 26.047 11.84-48.777c0.47266-1.4219 1.4219-1.8945 2.8398-1.8945h18.941c2.3672 0 3.3164 2.3672 2.3672 4.2617l-30.781 48.777c-1.8906 2.3711-5.6797 0.47656-5.207-2.3672z"/>
</svg>
