<svg viewBox="0 0 752 752" xmlns="http://www.w3.org/2000/svg"><path d="M283.18 417.47a33.06 33.06 0 0 1-17.24 4.93 61.27 61.27 0 0 1-47.36-30.31A70.83 70.83 0 0 1 206.46 354a35.52 35.52 0 0 1 14.77-31.07 34.96 34.96 0 0 1 33.91-1.32 72.3 72.3 0 0 1 30.5 26.52 70.6 70.6 0 0 1 12.13 38.45c.69 12.1-4.8 23.73-14.59 30.88zm174.85 26.52a82.7 82.7 0 0 1-19.32-21.79c-2.46-5.1-4.36-10.23-6.25-15.34-7.96-21.21-16.86-45.27-56.45-45.27s-48.5 24.06-56.45 45.27c-1.9 5.11-3.8 10.23-6.25 15.34A82.77 82.77 0 0 1 293.97 444c-17.8 16.3-42.24 38.65-14.2 69.52 15.34 17.05 33.52 11.37 52.85 5.3a139 139 0 0 1 43.37-8.33c14.82.45 29.46 3.26 43.39 8.34a98.17 98.17 0 0 0 28.22 6.06 31.27 31.27 0 0 0 24.63-11.37c28-30.88 3.56-53.23-14.25-69.52zm72.74-121.05a34.96 34.96 0 0 0-33.9-1.32 72.33 72.33 0 0 0-30.5 26.52 70.6 70.6 0 0 0-12.13 38.45 35.72 35.72 0 0 0 14.59 30.88 33.05 33.05 0 0 0 17.24 4.92 61.27 61.27 0 0 0 47.35-30.3c17.2-26.53 16.07-57.03-2.69-69.13zm-199.66 23.3c2.25.07 4.49-.25 6.63-.95 20.64-5.3 29.93-35.42 21.4-68.39s-31.82-54.55-52.47-48.87a33.33 33.33 0 0 0-22.16 25.77 83.87 83.87 0 0 0 .95 42.62c7.72 29.55 26.85 49.82 45.6 49.82zm83.16-.94c2.14.68 4.38 1 6.63.94a38.25 38.25 0 0 0 26.9-13.83 83.38 83.38 0 0 0 18.75-35.99 83.87 83.87 0 0 0 .95-42.62 33.31 33.31 0 0 0-22.17-25.77c-20.83-5.68-43.75 15.92-52.47 48.88-8.7 32.96.72 63.1 21.37 68.38z"/></svg>