<?xml version="1.0" encoding="UTF-8"?>
<svg width="752pt" height="752pt" version="1.1" viewBox="0 0 752 752" xmlns="http://www.w3.org/2000/svg">
 <g>
  <path d="m374.5 577.07c-3.9922-1.6953-9.6758-31.34-9.6758-50.555 0-16.047-8.1211-57.762-8.4688-59.527-0.066406-0.6875-9.4531-88.336 5.957-145.4 3.7227-13.777 2.4961-27.891 1.6953-33.855 4.3672 0.29297 13.223 1.3398 22.035 5.082-3.5742 15.496-25.156 114.5-7.9219 175.28 0.11719 0.35547 8.2812 24.625 8.2812 46.121 0 13.305 1.4336 20.781 2.4766 26.238 0.71484 3.7305 1.2852 6.6758 1.168 10.164-0.24609 8.2422-9.1953 26.289-15.547 26.453zm41.148-215.3c-1.7305-2.1016-3.2852-4.375-4.7461-6.7148 1.6328 2.2148 3.2422 4.4414 4.7539 6.7188l0.03125 0.046874c-0.011719-0.015624-0.023438-0.03125-0.039063-0.050781zm9.7891-5.293c-2.1094-2.6172-4.0391-5.418-5.8594-8.2891l5.8945 8.332c-0.011719-0.015625-0.019531-0.03125-0.035156-0.042969zm14.891-3.1211c-2.3867-2.125-4.6094-4.4648-6.7188-6.9062 0.11719 0.125 0.24609 0.25 0.37109 0.375 2.1406 2.1641 4.2812 4.3242 6.3594 6.5312l0.050781 0.050781c-0.019531-0.011719-0.042969-0.03125-0.0625-0.050781zm-137.74-9.8828c2.5-2.3008 5.0703-4.5312 7.6523-6.7617-2.4453 2.3906-4.9766 4.6875-7.6523 6.7656-0.015626 0.015626-0.03125 0.027344-0.050782 0.039063 0.015625-0.015625 0.03125-0.03125 0.050782-0.042969zm181.65-3.1758c-1.4688-1.1953-3.6797-3.5703-5.1484-5.1445-1.8359-1.9766-3.7383-4.0195-5.3789-5.3789-12.703-10.512-25.043-18.996-37.734-25.938-21.605-11.812-53.926-25.887-85.246-25.887-9.1406 0-17.789 1.207-25.707 3.5938-17.934 5.3984-38.977 25.949-51.551 38.219-3.6406 3.5508-7.3828 7.207-9.3438 8.75 0.30859-2.9844 2.9688-9.7422 4.5-13.625 1.207-3.0625 2.3672-6.0352 3.1289-8.4336 2.1836-6.9375 5.3789-14.5 8.4688-21.812 0.89453-2.1211 1.7773-4.1992 2.6016-6.2031 7.0859-17.129 16.297-34.102 27.383-50.445 16.242-23.973 38.352-51.488 65.301-51.488 7.3945 0 14.898 2.1406 22.305 6.3711 13.066 7.4492 23.973 18.617 33.809 29.578l2.1992 2.4453c11.816 13.141 25.215 28.039 34.5 43.219 12.801 20.934 20.844 63.371 15.914 82.18zm-188.66-6.0664c2.8281-2.4609 5.8008-4.8672 8.7617-7.2109-2.8359 2.5195-5.7539 4.9727-8.7695 7.2266-0.003906 0.003906-0.015624 0.007812-0.019531 0.015625z"/>
  <path d="m375.5 178.88c6.9766 0 14.09 2.0352 21.137 6.0586 12.77 7.2852 23.508 18.289 33.219 29.105l2.1992 2.4453c12.328 13.707 25.07 27.879 34.238 42.875 12.57 20.543 19.066 57.414 16.441 76.23-0.69141-0.72266-1.3672-1.4492-1.918-2.043-1.8906-2.0312-3.8438-4.1289-5.6055-5.5898-12.816-10.609-25.281-19.176-38.109-26.195-21.84-11.938-54.562-26.176-86.383-26.176-9.3711 0-18.246 1.2461-26.387 3.6953-18.488 5.5703-38.973 25.562-52.52 38.793-0.98828 0.96484-2.0117 1.9648-3.0117 2.9297 0.69531-1.875 1.4297-3.7422 2.0234-5.2461 1.2305-3.125 2.3906-6.0742 3.1836-8.5898 2.1562-6.8281 5.3242-14.34 8.3867-21.602 0.89844-2.1328 1.7812-4.2148 2.6094-6.2188 7.0234-16.984 16.164-33.812 27.152-50.023 15.918-23.496 37.504-50.449 63.344-50.449m-8.8086 111.47c4.1992 0.46094 10.324 1.5117 16.594 3.9102-4.6406 20.656-24.215 115.34-7.4453 174.48 0.019531 0.082031 0.046875 0.15625 0.070312 0.23047 0.082032 0.24219 8.1172 24.168 8.1172 45.25 0 13.527 1.457 21.133 2.5195 26.688 0.71484 3.7227 1.2305 6.4141 1.1289 9.6406-0.23047 7.5742-7.9297 22.051-12.359 23.957-3.6523-5.3672-8.1328-31.305-8.1328-47.977 0-15.871-7.7656-56.156-8.4727-59.785-0.48438-4.5898-9.0703-89.18 5.8828-144.53 3.3086-12.23 2.8242-24.727 2.0977-31.863m8.8086-116.21c-28.34 0-51.336 29.027-67.262 52.523-10.852 16.004-20.219 33.004-27.609 50.871-3.6484 8.8281-8.2734 19.105-11.137 28.211-2.8086 8.918-11.391 25.781-5.9766 25.781 4.0312 0 36.527-39.984 62.188-47.715 8.0586-2.4297 16.473-3.4961 25.023-3.4961 29.184 0 60.008 12.418 84.109 25.594 13.305 7.2734 25.695 16.031 37.359 25.688 4.0898 3.3906 10.305 11.758 12.965 11.758 0.27344 0 0.50781-0.089843 0.69922-0.28516 6.207-17.848-1.4805-63.242-15.523-86.195-9.9688-16.297-24.211-31.816-36.957-46.008-10.102-11.254-21.145-22.496-34.395-30.055-8.1797-4.6602-16.016-6.6719-23.484-6.6719zm-24.602 110.95c-12.473 10.77-25.043 21.426-37.727 31.891-6.3789 5.1953-12.98 10.098-19.16 15.477l-18.516 16.301 0.25 0.40234c7.6875-3.3594 14.586-8.1016 21.234-13.016 6.6445-4.9531 12.613-10.707 18.68-16.305 12.18-11.148 24.02-22.633 35.566-34.41zm10.348 0.17188h-0.019531s3.5039 18.316-1.1992 35.723c-15.707 58.164-5.9961 146.47-5.9961 146.47s8.4219 43.082 8.4219 59.078c0 15.988 5.0625 52.922 11.977 52.922h0.007812c8.4727-0.046874 17.715-20.273 17.98-28.75 0.28906-9.1602-3.6523-14.324-3.6523-36.477 0-22.16-8.3711-46.77-8.3711-46.77-18.375-64.824 8.3984-175.99 8.3984-175.99-13.109-6.1367-26.957-6.2031-27.547-6.2031zm-33.07 1.6953c-11.234 4.9141-21.57 11.621-31.531 18.738-4.9883 3.5547-9.9922 7.1367-14.496 11.293-4.4414 4.2344-8.8164 8.5234-12.555 13.453l0.24609 0.26172c5.1289-3.4414 9.8047-7.3125 14.625-11.016 4.7539-3.7656 9.1953-7.9023 13.91-11.734 4.7109-3.8281 9.5469-7.4961 14.531-10.973 4.957-3.4961 10.035-6.8867 15.418-9.6992zm13.07 0.019531c-12.133 8.4102-24.211 16.902-36.223 25.469-6.0273 4.2578-12.18 8.3555-17.953 12.949-5.7227 4.668-11.48 9.2852-16.785 14.516l0.21484 0.28906c6.5195-3.5938 12.586-7.8008 18.695-11.953 6.0508-4.2227 11.73-8.957 17.527-13.516 11.641-9.0781 23.219-18.234 34.738-27.465zm65.785 6.8711-0.24219 0.26172c10.527 10.555 21.359 20.82 32.531 30.723 5.5742 4.9688 11.102 10.027 17.164 14.426 6.1172 4.2969 12.348 8.5859 19.316 11.523l0.17578-0.30469c-5.8633-4.6445-11.637-9.25-17.32-14.023-5.7148-4.7188-11.703-9.125-17.492-13.781-11.543-9.3984-22.91-19.027-34.133-28.824zm-47.949 0.027344c-8.9844 12.27-18.332 24.27-28.074 35.898-4.9141 5.7812-10.102 11.293-15.07 16.977-4.9336 5.7305-10.055 11.23-15.504 16.566l0.20703 0.28906c6.7539-3.7617 12.441-9.0781 17.902-14.43 5.3906-5.4609 10.039-11.559 14.676-17.617 9.3125-12.09 18.004-24.617 26.156-37.48zm-10.477 1.418c-9.9531 11.02-20.312 21.668-31.066 31.801-5.4258 5.0312-11.156 9.6758-16.562 14.645-5.418 4.9805-10.883 9.8164-16.617 14.648l0.23828 0.41016c7.1133-2.6328 13.496-6.8672 19.438-11.438 5.9453-4.6172 11.062-10.141 16.176-15.574 10.273-10.844 19.848-22.277 28.766-34.191zm51.293 0.027344-0.26953 0.23828c9.8711 11.863 20.027 23.484 30.559 34.793 5.2461 5.6641 10.441 11.422 16.258 16.555 5.9062 4.9727 11.84 10.207 19.059 13.398l0.17578-0.30859c-5.9922-4.8242-11.367-10.262-16.809-15.684-5.4258-5.4141-11.145-10.562-16.652-15.945-10.938-10.828-21.691-21.871-32.32-33.047zm-8.8984 3.5703-0.42578 0.21484c6.2695 13.609 13.148 26.938 20.758 39.898 3.7773 6.4922 7.5117 13.074 12.27 18.98 4.7734 5.8242 10.016 11.566 16.613 15.512l0.30469-0.36328c-4.7812-5.8047-8.9336-11.848-13.117-17.969l-12.863-18.172c-8.2461-12.398-16.07-25.148-23.539-38.102zm35.473 4.3008-0.20312 0.28906c7.9531 6.332 15.965 12.586 24.035 18.754 4.0156 3.1172 7.9102 6.3945 12.172 9.1641 4.2656 2.7617 8.6133 5.4102 13.312 7.5742l0.20312-0.28906c-3.5625-3.75-7.4648-7.0156-11.445-10.172-3.9922-3.1484-8.3477-5.7812-12.586-8.582-8.4414-5.6641-16.93-11.246-25.488-16.738zm-25.488 1.0234-0.39844 0.26172c7.2852 12.047 15.277 23.668 24.066 34.742 4.375 5.5469 8.7656 11.176 14.102 15.926 5.332 4.6836 11.195 9.1016 17.977 11.582l0.24219-0.41016c-5.3477-4.6523-10.148-9.5391-14.918-14.578-4.7422-5.0312-9.7891-9.8164-14.504-14.977-9.3242-10.387-18.164-21.301-26.566-32.547zm-44.305 5.6016c-7.5156 10.098-15.305 19.988-23.418 29.562l-12.527 13.977c-4.0547 4.7578-8.2461 9.3125-12.742 13.758l0.20312 0.29297c5.7773-2.8555 10.555-7.2422 15.137-11.625 4.5195-4.4883 8.3203-9.5859 12.145-14.613 7.6797-10.043 14.816-20.449 21.504-31.148zm31.258 5.582-0.42578 0.21484c4.9453 11.023 10.398 21.816 16.477 32.316 3.0117 5.2617 5.9453 10.633 9.8359 15.367 3.9023 4.6641 8.2422 9.2578 13.73 12.25l0.30469-0.35937c-3.6797-4.8594-6.918-9.7617-10.234-14.715-3.2773-4.9492-7.0195-9.6172-10.43-14.559-6.7148-9.9336-13.117-20.141-19.258-30.516zm-3.0508 12.344-0.33984 0.097656c2.5391 9.3672 6.5195 18.316 11.328 26.797 2.3828 4.2461 4.8594 8.5117 8.0312 12.246 3.1914 3.7031 6.6992 7.1641 10.77 9.9531l0.25-0.25c-2.6602-4.1289-5.4805-7.9688-8.2109-11.879-2.7148-3.9062-5.7539-7.5859-8.4219-11.559-2.6562-3.9688-5.1055-8.0938-7.3359-12.336-2.2734-4.2227-4.3906-8.5625-6.0703-13.07zm-29.82 0.90234c-3.8398 7.457-7.7578 14.875-11.789 22.191-2.0508 3.6406-4.332 7.1406-6.1836 10.855l-5.582 11.188 0.26562 0.24219c3.5391-2.5859 6.0742-6.1406 8.4023-9.6602 2.3047-3.5703 3.918-7.4961 5.6406-11.336 3.4961-7.6641 6.668-15.445 9.5703-23.328zm-4.1445 3.6641-16.652 17.824c-2.7891 2.9492-5.75 5.7461-8.2695 8.9141-2.5508 3.1484-4.8789 6.4609-7.2617 9.7891l0.21875 0.28516c3.7773-1.9766 6.7617-4.8633 9.6914-7.6992 2.8945-2.8828 5.2695-6.2188 7.7812-9.4297 5.0625-6.3789 9.9766-12.867 14.77-19.449zm31.043 9.0547-0.33203 0.10938c1.8359 7.0703 3.8516 14.086 6.0703 21.047 1.0781 3.4922 2.0039 7.0508 3.5625 10.371 1.582 3.3047 3.3281 6.5781 5.7617 9.4727l0.32031-0.14844c-0.66797-3.6953-1.6719-7.1758-2.7852-10.633-1.1094-3.4531-2.7617-6.707-4.1953-10.051zm-30.73 11.867h-0.35547c-0.63281 3.7852-1.7305 7.4531-2.9883 10.992-0.67188 1.7656-1.6133 3.4102-2.0469 5.2344-0.42578 1.832-0.80469 3.6875-0.77344 5.8359l0.31641 0.15625c1.7188-1.3086 2.8555-2.9844 3.7773-4.7461 0.91016-1.7773 1.1445-3.7969 1.4688-5.7383 0.69922-3.8906 0.99609-7.8359 0.60156-11.734zm29.977 4.4219c-1.2305 4.4062-1.9414 8.9688-1.8789 13.664 0.015624 2.3359 0.03125 4.8164 1.0703 7.0977 1.0234 2.2148 2.8125 4.4375 5.2773 5.1094l0.22266-0.28125c-1.1133-2.1367-1.6641-3.9961-2.1484-6.0195-0.44531-1.9883-1.2031-3.9961-1.582-6.1602-0.67188-4.3125-0.81641-8.8477-0.60156-13.355z"/>
 </g>
</svg>
