<?xml version="1.0" encoding="UTF-8"?>
<svg width="752pt" height="752pt" version="1.1" viewBox="0 0 752 752" xmlns="http://www.w3.org/2000/svg">
 <defs>
  <clipPath id="a">
   <path d="m189 152h387v460.79h-387z"/>
  </clipPath>
 </defs>
 <path d="m453.25 433.12c14.805 6.8086 31.676 5.332 31.676 5.332s47.355-10.066 39.66-62.457c-7.6953-52.387-39.363-88.504-39.363-88.504s-6.2148 30.488-11.547 47.066c-5.332 16.574-17.465 32.855-17.465 32.855s-6.8086 9.7656-12.133 4.7344 10.363-24.863 10.363-24.863 30.781-55.938 18.941-78.141c-19.238-32.262-49.727-36.109-49.727-36.109 11.547 10.062 5.625 60.676 5.625 60.676s-4.4414 37.293-19.535 38.477-6.2148-15.684-6.2148-15.684c12.133-27.824 14.207-68.078 14.207-68.078s0.89062-10.062-3.5508-19.535c-4.4414-9.4727-20.129-13.914-29.305-13.023-9.1797 0.89062-36.109-2.6602-36.109-2.6602 21.902 28.121 17.465 61.273 17.465 61.273s0 9.4727-4.1445 14.5c-4.1445 5.0312-8.8789-4.7344-8.8789-4.7344s-2.3672-14.5-3.2578-36.996-13.914-31.078-13.914-31.078-11.547-7.1055-29.305-4.1445c-17.758 2.9609-36.109-8.8867-36.109-8.8867 8.8789 17.758-15.684 71.629-15.684 71.629s-9.1797 21.016-5.0312 29.008c4.1484 7.9883 12.133 16.574 31.672 19.832 19.539 3.2578 41.145 1.7773 41.145 1.7773s16.574-2.9609 25.754 1.4766-3.5508 12.73-3.5508 12.73-11.555 5.9141-39.969 6.5117c-28.414 0.59766-65.711-26.938-65.711-26.938 4.1445 35.52 25.457 67.484 25.457 67.484 7.1055 29.598 27.824 52.688 27.824 52.688s2.3672 3.5508 23.387 2.9609c21.016-0.59375 57.711-9.7656 57.711-9.7656s13.914-5.3281 18.648-3.8438c4.7344 1.4805-1.1836 6.8086-1.1836 6.8086s-6.8086 9.168-37.59 12.719c-30.781 3.5508-55.055 3.2578-55.055 3.2578 9.4727 19.535 32.262 35.52 32.262 35.52s35.52 25.754 76.066 17.465c40.547-8.2891 42.621-50.617 42.621-50.617l45.285 112.48 7.3984-7.6953s-39.961-100.64-48.836-115.73c-8.8789-15.098 0-9.7695 0-9.7695zm-156.27-135.69s-13.402-6.0938 5.5469-10.699c18.949-4.6016 19.996 8.2773 19.996 8.2773-3.6211 17.848-25.543 2.4219-25.543 2.4219zm41.965 93.402s44.141-8.4141 47.168-0.90625c3.0273 7.5117-27.203 11.195-47.168 0.90625zm82.223 80.211c-5.2852 5.625-15.516 4.8086-16.863 3.9102-0.26562-0.17578-0.44922-0.37891-0.59766-0.66016-1.3242-2.4531-3.8125-22.406 11.285-31.672 10.949-6.8086 13.578 7.6953 13.578 7.6953 1.1797 3.6484-0.30469 13.168-7.4023 20.727zm12.809-122.55c-9.6289 10.363-7.9023 15.68-15.859 12.949-4.5547-1.5664-0.089844-5.8398-0.089844-5.8398s6.668-5.7461 8.6562-15.848c1.9922-10.102 8.6836-6.3047 8.6836-6.3047 0.003906 0.003907 8.2383 4.6797-1.3906 15.043z"/>
 <g clip-path="url(#a)">
  <path transform="matrix(4.7358 0 0 4.7358 139.21 139.21)" d="m66.312 62.062c3.1261 1.4377 6.6886 1.1259 6.6886 1.1259s9.9994-2.1256 8.3745-13.188c-1.6249-11.062-8.3118-18.688-8.3118-18.688s-1.3123 6.4378-2.4382 9.9384c-1.1259 3.4998-3.6878 6.9377-3.6878 6.9377s-1.4377 2.0621-2.5619 0.9997c-1.1242-1.0624 2.1883-5.2501 2.1883-5.2501s6.4997-11.812 3.9996-16.5c-4.0623-6.8123-10.5-7.6248-10.5-7.6248 2.4382 2.1248 1.1878 12.812 1.1878 12.812s-0.93784 7.8747-4.125 8.1246-1.3123-3.3117-1.3123-3.3117c2.5619-5.8753 2.9999-14.375 2.9999-14.375s0.18806-2.1248-0.74977-4.125c-0.93784-2.0002-4.2504-2.9381-6.1879-2.75-1.9384 0.18806-7.6248-0.56171-7.6248-0.56171 4.6248 5.938 3.6878 12.938 3.6878 12.938s0 2.0002-0.87515 3.0618c-0.87515 1.0624-1.8748-0.9997-1.8748-0.9997s-0.49985-3.0618-0.68791-7.812c-0.18806-4.7502-2.9381-6.5624-2.9381-6.5624s-2.4382-1.5004-6.1879-0.87515-7.6248-1.8765-7.6248-1.8765c1.8748 3.7497-3.3117 15.125-3.3117 15.125s-1.9384 4.4376-1.0624 6.1252c0.87597 1.6868 2.5619 3.4998 6.6877 4.1877 4.1258 0.68791 8.688 0.3753 8.688 0.3753s3.4998-0.62522 5.4381 0.31179c1.9384 0.93701-0.74977 2.6881-0.74977 2.6881s-2.4399 1.2488-8.4397 1.375c-5.9998 0.1262-13.875-5.688-13.875-5.688 0.87515 7.5002 5.3754 14.25 5.3754 14.25 1.5004 6.2498 5.8753 11.125 5.8753 11.125s0.49985 0.74977 4.9383 0.62522c4.4376-0.12538 12.186-2.0621 12.186-2.0621s2.9381-1.1251 3.9378-0.81164c0.9997 0.31261-0.24992 1.4377-0.24992 1.4377s-1.4377 1.9359-7.9374 2.6857c-6.4997 0.74977-11.625 0.68791-11.625 0.68791 2.0002 4.125 6.8123 7.5002 6.8123 7.5002s7.5002 5.4381 16.062 3.6878c8.5618-1.7503 8.9997-10.688 8.9997-10.688l9.5623 23.75 1.5622-1.6249s-8.438-21.25-10.312-24.438c-1.8748-3.188 0-2.0629 0-2.0629zm-32.997-28.651s-2.83-1.2867 1.1713-2.2592c4.0013-0.97165 4.2223 1.7478 4.2223 1.7478-0.76462 3.7687-5.3936 0.5114-5.3936 0.5114zm8.8612 19.723s9.3206-1.7767 9.9599-0.19136c0.63924 1.5862-5.7441 2.364-9.9599 0.19136zm17.362 16.937c-1.116 1.1878-3.2762 1.0154-3.5608 0.82566-0.056088-0.037117-0.094856-0.080009-0.1262-0.1394-0.27962-0.51799-0.80504-4.7312 2.3829-6.6877 2.312-1.4377 2.8671 1.6249 2.8671 1.6249 0.2491 0.77039-0.064337 2.7805-1.5631 4.3766zm2.7046-25.877c-2.0332 2.1883-1.6686 3.3109-3.3488 2.7343-0.96176-0.33076-0.018971-1.2331-0.018971-1.2331s1.408-1.2133 1.8278-3.3463c0.42066-2.133 1.8336-1.3313 1.8336-1.3313 8.25e-4 8.25e-4 1.7396 0.98815-0.29364 3.1764z" fill="none" stroke="#000" stroke-miterlimit="10" stroke-width=".75"/>
 </g>
</svg>
